<?xml version="1.0" encoding="UTF-8"?>
<svg width="60px" height="60px" viewBox="0 0 60 60" version="1.1" xmlns="http://www.w3.org/2000/svg" xmlns:xlink="http://www.w3.org/1999/xlink">
    <!-- Generator: Sketch 48.2 (47327) - http://www.bohemiancoding.com/sketch -->
    <title>Email</title>
    <desc>Created with Sketch.</desc>
    <defs></defs>
    <g id="Footer-Designed" stroke="none" stroke-width="1" fill="none" fill-rule="evenodd" transform="translate(-1010.000000, -46.000000)">
        <g id="Footer" transform="translate(0.000000, 1.000000)">
            <g id="Social/email" transform="translate(1010.000000, 45.000000)">
                <circle id="Oval-27" fill="#FFFFFF" cx="30" cy="30" r="30"></circle>
                <path d="M40,27.0669643 C39.6651786,27.4352679 39.2857143,27.7589286 38.8839286,28.0379464 C37.0200893,29.2991071 35.1450893,30.5714286 33.3258929,31.8883929 C32.3883929,32.5803571 31.2276786,33.4285714 30.0111607,33.4285714 L30,33.4285714 L29.9888393,33.4285714 C28.7723214,33.4285714 27.6116071,32.5803571 26.6741071,31.8883929 C24.8549107,30.5602679 22.9799107,29.2991071 21.1272321,28.0379464 C20.7142857,27.7589286 20.3348214,27.4352679 20,27.0669643 L20,35.9285714 C20,36.9107143 20.8035714,37.7142857 21.7857143,37.7142857 L38.2142857,37.7142857 C39.1964286,37.7142857 40,36.9107143 40,35.9285714 L40,27.0669643 Z M40,23.7857143 C40,22.8035714 39.1852679,22 38.2142857,22 L21.7857143,22 C20.5915179,22 20,22.9375 20,24.03125 C20,25.046875 21.1272321,26.3080357 21.9196429,26.84375 C23.6495536,28.0491071 25.4017857,29.2544643 27.1316964,30.4709821 C27.8571429,30.9732143 29.0848214,32 29.9888393,32 L30,32 L30.0111607,32 C30.9151786,32 32.1428571,30.9732143 32.8683036,30.4709821 C34.5982143,29.2544643 36.3504464,28.0491071 38.0915179,26.84375 C39.0736607,26.1629464 40,25.0357143 40,23.7857143 L40,23.7857143 Z" id="email-ico" fill="#51A100"></path>
            </g>
        </g>
    </g>
</svg>