<?xml version="1.0" encoding="UTF-8"?>
<svg width="60px" height="60px" viewBox="0 0 60 60" version="1.1" xmlns="http://www.w3.org/2000/svg" xmlns:xlink="http://www.w3.org/1999/xlink">
    <!-- Generator: Sketch 48.2 (47327) - http://www.bohemiancoding.com/sketch -->
    <title>Facebook</title>
    <desc>Created with Sketch.</desc>
    <defs></defs>
    <g id="Footer-Designed" stroke="none" stroke-width="1" fill="none" fill-rule="evenodd" transform="translate(-1090.000000, -46.000000)">
        <g id="Footer" transform="translate(0.000000, 1.000000)">
            <g id="Social/facebook" transform="translate(1090.000000, 45.000000)">
                <path d="M30,60 C46.5685425,60 60,46.5685425 60,30 C60,13.4314575 46.5685425,0 30,0 C13.4314575,0 0,13.4314575 0,30 C0,46.5685425 13.4314575,60 30,60 Z" id="Oval-27" fill="#FFFFFF"></path>
                <path d="M33.9341813,20.5256666 C34.695669,20.5256666 35.7305111,20.6623439 36.5701001,20.8380718 C36.7653533,20.8771225 36.9801319,20.8380718 37.1558598,20.7209199 C37.3315877,20.6037679 37.4487396,20.4085147 37.468265,20.2132615 L37.9954487,16.4058233 C38.0344994,16.0543675 37.8197208,15.6833863 37.4487396,15.5857597 C36.081967,15.1952532 34.5980424,15 33.0555418,15 C28.3889894,15 26.1240518,17.2258869 26.1240518,21.8338633 L26.1240518,23.8449717 L23.7419623,23.8449717 C23.3319305,23.8449717 23,24.1769022 23,24.586934 L23,28.4919988 C23,28.9215559 23.3319305,29.2534864 23.7419623,29.2534864 L26.1240518,29.2534864 L26.1240518,44.2489351 C26.1240518,44.6589669 26.4559823,44.9908974 26.8660141,44.9908974 L31.7473451,44.9908974 C32.1378516,44.9908974 32.4697821,44.6589669 32.4697821,44.2489351 L32.4697821,29.2534864 L36.4138975,29.2534864 C36.8044039,29.2534864 37.1168091,28.9410812 37.1558598,28.5505747 L37.4292143,24.64551 C37.4487396,24.4307314 37.3706383,24.2354782 37.2339611,24.0792756 C37.0972838,23.923073 36.9020306,23.8449717 36.7067773,23.8449717 L32.4697821,23.8449717 L32.4697821,22.1267432 C32.4697821,20.8380718 32.6064593,20.5256666 33.9341813,20.5256666 L33.9341813,20.5256666 Z" id="facebook-ico" fill="#3B60B8"></path>
            </g>
        </g>
    </g>
</svg>