<svg width="655" height="319" viewBox="0 0 655 319" xmlns="http://www.w3.org/2000/svg"><title>Group</title><g fill="none" fill-rule="evenodd"><rect fill="#51A100" width="655" height="319" rx="20"/><path d="M140.914 161.976c-1.091 4.079-2.23 7.181-3.414 9.308-2.6 4.666-5.9 8.666-9.9 12-4 3.333-8.567 5.933-13.7 7.8-5.133 1.866-10.7 2.8-16.7 2.8-6.667 0-12.767-1.1-18.3-3.3-5.533-2.2-10.3-5.534-14.3-10-4-4.467-7.1-10-9.3-16.6-2.2-6.6-3.3-14.3-3.3-23.1s1.1-16.4 3.3-22.8c2.2-6.4 5.3-11.634 9.3-15.7 4-4.067 8.833-7.1 14.5-9.1s11.967-3 18.9-3c6.4 0 12.233.866 17.5 2.6 5.267 1.733 9.867 4.266 13.8 7.6 3.933 3.333 7.033 7.333 9.3 12 1.055 2.172 2.024 5.364 2.906 9.575a5 5 0 0 1-4.894 6.025h-16.594a5 5 0 0 1-4.7-3.297c-1.522-4.198-3.194-7.066-5.018-8.603-3.4-2.867-7.567-4.3-12.5-4.3-2.8 0-5.4.466-7.8 1.4-2.4.933-4.5 2.5-6.3 4.7-1.8 2.2-3.233 5.133-4.3 8.8-1.067 3.666-1.6 8.166-1.6 13.5 0 10.8 1.933 18.8 5.8 24 3.867 5.2 8.333 7.8 13.4 7.8s9.4-1.4 13-4.2c1.938-1.508 3.658-4.45 5.162-8.825a5 5 0 0 1 4.728-3.375h16.194a5 5 0 0 1 4.83 6.292zM212 186.284v-56c0-7.467-1.3-12.567-3.9-15.3-2.6-2.734-6.9-4.1-12.9-4.1-3.2 0-6.067.633-8.6 1.9a18.676 18.676 0 0 0-6.4 5.2c-1.733 2.2-3.033 4.733-3.9 7.6-.867 2.866-1.3 5.966-1.3 9.3v51.4a5 5 0 0 1-5 5h-16a5 5 0 0 1-5-5v-124.4a5 5 0 0 1 5-5h16a5 5 0 0 1 5 5v35.918a2.519 2.519 0 0 0 4.3 1.782c1.933-1.934 4.167-3.567 6.7-4.9 2.533-1.334 5.333-2.4 8.4-3.2 3.067-.8 6.267-1.2 9.6-1.2 10.133 0 18.367 2.766 24.7 8.3 6.333 5.533 9.5 13.233 9.5 23.1v64.6a5 5 0 0 1-5 5H217a5 5 0 0 1-5-5zm85-14.2c15.867 0 23.8-10 23.8-30 0-19.867-7.933-29.8-23.8-29.8s-23.8 9.933-23.8 29.8c0 20 7.933 30 23.8 30zm0 21.8c-8 0-15.133-1.267-21.4-3.8-6.267-2.534-11.567-6.067-15.9-10.6-4.333-4.534-7.633-10-9.9-16.4-2.267-6.4-3.4-13.4-3.4-21 0-7.734 1.167-14.8 3.5-21.2 2.333-6.4 5.7-11.867 10.1-16.4 4.4-4.534 9.7-8.034 15.9-10.5 6.2-2.467 13.233-3.7 21.1-3.7 7.733 0 14.667 1.233 20.8 3.7 6.133 2.466 11.367 5.933 15.7 10.4 4.333 4.466 7.667 9.9 10 16.3s3.5 13.533 3.5 21.4c0 7.866-1.167 14.966-3.5 21.3-2.333 6.333-5.667 11.766-10 16.3-4.333 4.533-9.6 8.033-15.8 10.5-6.2 2.466-13.1 3.7-20.7 3.7zm173.8-7.6v-54.6c0-6-1.4-10.867-4.2-14.6-2.8-3.734-6.533-5.6-11.2-5.6-4.8 0-8.767 2-11.9 6-3.133 4-4.7 9-4.7 15v53.8a5 5 0 0 1-5 5h-16a5 5 0 0 1-5-5v-54.2c0-4-.267-7.267-.8-9.8-.533-2.534-1.433-4.534-2.7-6-1.267-1.467-2.9-2.5-4.9-3.1-2-.6-4.4-.9-7.2-.9-10.533 0-15.8 6.4-15.8 19.2v54.8a5 5 0 0 1-5 5h-16a5 5 0 0 1-5-5v-88.4a5 5 0 0 1 5-5h14.4a5 5 0 0 1 5 5v6.171a1 1 0 0 0 1.817.577c4.072-5.768 7.466-9.351 10.183-10.748 4.667-2.4 10.267-3.6 16.8-3.6 3.333 0 6.3.266 8.9.8 2.6.533 4.933 1.433 7 2.7 2.067 1.266 4.033 2.9 5.9 4.9 1.1 1.178 2.686 3.19 4.759 6.036a1 1 0 0 0 1.636-.028c3.793-5.601 7.061-9.17 9.805-10.708 4.4-2.467 9.733-3.7 16-3.7 4.933 0 9.467.833 13.6 2.5 4.133 1.666 7.667 4 10.6 7s5.233 6.5 6.9 10.5c1.667 4 2.5 8.266 2.5 12.8v63.2a5 5 0 0 1-5 5h-15.4a5 5 0 0 1-5-5zm82.2-14.6c14.933 0 22.4-10.134 22.4-30.4 0-8.8-2.067-15.967-6.2-21.5-4.133-5.534-9.467-8.3-16-8.3-6.267 0-11.5 2.6-15.7 7.8-4.2 5.2-6.3 12-6.3 20.4 0 21.333 7.267 32 21.8 32zm-46.4 85.809V97.883a5 5 0 0 1 5-5h15.083a5 5 0 0 1 4.999 4.917l.044 2.622a2 2 0 0 0 3.32 1.47c8.81-7.74 16.862-11.608 24.154-11.608 6.133 0 11.833 1.2 17.1 3.6 5.267 2.4 9.767 5.866 13.5 10.4 3.733 4.533 6.667 10.066 8.8 16.6 2.133 6.533 3.2 13.933 3.2 22.2 0 7.466-.9 14.3-2.7 20.5-1.8 6.2-4.433 11.566-7.9 16.1-3.467 4.533-7.7 8.033-12.7 10.5-5 2.466-10.7 3.7-17.1 3.7-7.3 0-15.938-4.18-25.916-12.541a2 2 0 0 0-3.284 1.533v74.617a5 5 0 0 1-5 5h-15.6a5 5 0 0 1-5-5zm-22.07-43.581c2.207-.122 7.563.14 9.639.895 4.785 1.74 3.266 5.434.308 8.25-25.692 24.454-70.192 39.055-119.042 39.06-30.09.002-73.6-7.776-130.529-23.336a100 100 0 0 0-29.738-3.48l-132.69 4.48C52 240.456 52 238.728 52 226.492c0-12.235 0-12.582 30.478-12.582h148.095c.011 0 84.664 0 253.957.001z" fill="#FFF"/></g></svg>