<?xml version="1.0" encoding="UTF-8"?>
<svg width="40px" height="40px" viewBox="0 0 40 40" version="1.1" xmlns="http://www.w3.org/2000/svg" xmlns:xlink="http://www.w3.org/1999/xlink">
    <!-- Generator: Sketch 48.2 (47327) - http://www.bohemiancoding.com/sketch -->
    <title>Opening</title>
    <desc>Created with Sketch.</desc>
    <defs>
        <circle id="path-1" cx="20" cy="20" r="20"></circle>
        <polygon id="path-3" points="0 29.9625 30 29.9625 30 0 0 0"></polygon>
    </defs>
    <g id="Symbols" stroke="none" stroke-width="1" fill="none" fill-rule="evenodd">
        <g id="Opening">
            <mask id="mask-2" fill="white">
                <use xlink:href="#path-1"></use>
            </mask>
            <use id="Mask" stroke="#DFDFDF" fill="#FFFFFF" xlink:href="#path-1"></use>
            <g id="clock" mask="url(#mask-2)">
                <g transform="translate(5.000000, 5.000000)">
                    <g id="Group-3" stroke-width="1" fill="none">
                        <circle id="Oval" fill="#FFFFFF" cx="15" cy="15" r="15"></circle>
                        <mask id="mask-4" fill="white">
                            <use xlink:href="#path-3"></use>
                        </mask>
                        <g id="Clip-2"></g>
                        <path d="M15,0 C6.72875,0 0,6.72875 0,15 C0,23.27125 6.72875,30 15,30 C23.27125,30 30,23.27125 30,15 C30,6.72875 23.27125,0 15,0 Z M15,28.99875 C7.28,28.99875 1.00125,22.72 1.00125,15 C1.00125,7.28 7.28,1.00125 15,1.00125 C22.72,1.00125 28.99875,7.28 28.99875,15 C28.99875,22.72 22.72,28.99875 15,28.99875 Z" id="Fill-1" fill="#1B99FF" mask="url(#mask-4)"></path>
                    </g>
                    <path d="M15.6977468,12.3865038 L15.6977468,7.35400376 C15.6977468,7.08045113 15.4807995,6.85714286 15.215039,6.85714286 C14.9492785,6.85714286 14.7323312,7.08045113 14.7323312,7.35400376 L14.7323312,12.3865038 C14.0591918,12.5682519 13.5294787,13.111015 13.3553182,13.8045113 L9.91127925,13.8045113 C9.64551877,13.8045113 9.42857143,14.0271992 9.42857143,14.3007519 C9.42857143,14.5749248 9.64551877,14.7976128 9.91127925,14.7976128 L13.3553182,14.7976128 C13.569855,15.6505263 14.3183233,16.2857143 15.215039,16.2857143 C16.2792862,16.2857143 17.1428571,15.396203 17.1428571,14.3007519 C17.1428571,13.3777444 16.5263651,12.609812 15.6977468,12.3865038 Z M15.215039,15.2944737 C14.6829154,15.2944737 14.2496234,14.8484774 14.2496234,14.3007519 C14.2496234,13.7536466 14.6829154,13.3101316 15.215039,13.3101316 C15.7471626,13.3101316 16.1804547,13.7536466 16.1804547,14.3007519 C16.1804547,14.8484774 15.7471626,15.2944737 15.215039,15.2944737 Z" id="Fill-4" fill="#1B99FF"></path>
                    <path d="M14.8571429,4.28571429 C15.0930979,4.28571429 15.2857143,4.15882283 15.2857143,3.99976171 L15.2857143,3.71488145 C15.2857143,3.55546289 15.0930979,3.42857143 14.8571429,3.42857143 C14.6211878,3.42857143 14.4285714,3.55546289 14.4285714,3.71488145 L14.4285714,3.99976171 C14.4285714,4.15882283 14.6211878,4.28571429 14.8571429,4.28571429 Z" id="Fill-5" fill="#1B99FF"></path>
                    <path d="M14.8571429,25.7142857 C14.6211878,25.7142857 14.4285714,25.8426966 14.4285714,26 L14.4285714,26.2857143 C14.4285714,26.4430177 14.6211878,26.5714286 14.8571429,26.5714286 C15.0930979,26.5714286 15.2857143,26.4430177 15.2857143,26.2857143 L15.2857143,26 C15.2857143,25.8426966 15.0930979,25.7142857 14.8571429,25.7142857 Z" id="Fill-6" fill="#1B99FF"></path>
                    <path d="M26.2869058,15.4285714 L26.0005957,15.4285714 C25.8426069,15.4285714 25.7142857,15.6207727 25.7142857,15.8568752 C25.7142857,16.093513 25.8426069,16.2857143 26.0005957,16.2857143 L26.2869058,16.2857143 C26.4445371,16.2857143 26.5714286,16.093513 26.5714286,15.8568752 C26.5714286,15.6207727 26.4445371,15.4285714 26.2869058,15.4285714 Z" id="Fill-7" fill="#1B99FF"></path>
                    <path d="M3.99940427,15.4285714 L3.71309425,15.4285714 C3.55546289,15.4285714 3.42857143,15.6207727 3.42857143,15.8568752 C3.42857143,16.093513 3.55546289,16.2857143 3.71309425,16.2857143 L3.99940427,16.2857143 C4.15739307,16.2857143 4.28571429,16.093513 4.28571429,15.8568752 C4.28571429,15.6207727 4.15739307,15.4285714 3.99940427,15.4285714 Z" id="Fill-8" fill="#1B99FF"></path>
                    <path d="M22.6023985,6.94996458 L22.3782288,7.17376477 C22.2548761,7.29752706 22.2548761,7.49799825 22.3782288,7.62176055 C22.4403005,7.68344399 22.5221402,7.71428571 22.6023985,7.71428571 C22.6842383,7.71428571 22.7644966,7.68344399 22.8261729,7.62176055 L23.0503426,7.39756495 C23.1736953,7.27419807 23.1736953,7.07333147 23.0503426,6.94996458 C22.9265946,6.82620228 22.7257512,6.82620228 22.6023985,6.94996458 Z" id="Fill-9" fill="#1B99FF"></path>
                    <path d="M7.1738271,22.3792378 L6.94965735,22.6017127 C6.82630469,22.7256178 6.82630469,22.9267161 6.94965735,23.0502252 C7.01172905,23.1119798 7.09356879,23.1428571 7.1738271,23.1428571 C7.25566684,23.1428571 7.33592514,23.1119798 7.39760148,23.0502252 L7.62177122,22.8261669 C7.74512388,22.7022619 7.74512388,22.502747 7.62177122,22.3792378 C7.49802319,22.2537493 7.29717976,22.2553328 7.1738271,22.3792378 Z" id="Fill-10" fill="#1B99FF"></path>
                    <path d="M22.8261729,22.3797656 C22.7028202,22.2543638 22.5019768,22.2543638 22.3782288,22.3797656 C22.2548761,22.5031894 22.2548761,22.7025664 22.3782288,22.8263858 L22.6023985,23.0502893 C22.6640749,23.1120012 22.7443332,23.1428571 22.8261729,23.1428571 C22.9064312,23.1428571 22.988271,23.1120012 23.0503426,23.0502893 C23.1736953,22.9268655 23.1736953,22.7259061 23.0503426,22.6020867 L22.8261729,22.3797656 Z" id="Fill-11" fill="#1B99FF"></path>
                    <path d="M7.39760148,6.94996458 C7.27424881,6.82620228 7.07340538,6.82620228 6.94965735,6.94996458 C6.82630469,7.07333147 6.82630469,7.27419807 6.94965735,7.39756495 L7.1738271,7.62176055 C7.23550343,7.68344399 7.31576173,7.71428571 7.39760148,7.71428571 C7.47785978,7.71428571 7.55969953,7.68344399 7.62177122,7.62176055 C7.74512388,7.49799825 7.74512388,7.29752706 7.62177122,7.17376477 L7.39760148,6.94996458 Z" id="Fill-12" fill="#1B99FF"></path>
                </g>
            </g>
        </g>
    </g>
</svg>