<?xml version="1.0" encoding="UTF-8"?>
<svg width="40px" height="40px" viewBox="0 0 40 40" version="1.1" xmlns="http://www.w3.org/2000/svg" xmlns:xlink="http://www.w3.org/1999/xlink">
    <!-- Generator: Sketch 48.2 (47327) - http://www.bohemiancoding.com/sketch -->
    <title>Phone</title>
    <desc>Created with Sketch.</desc>
    <defs>
        <circle id="path-1" cx="20" cy="20" r="20"></circle>
        <polygon id="path-3" points="0 3.74913692e-15 0 25 25 25 25 0"></polygon>
    </defs>
    <g id="Symbols" stroke="none" stroke-width="1" fill="none" fill-rule="evenodd">
        <g id="Phone">
            <mask id="mask-2" fill="white">
                <use xlink:href="#path-1"></use>
            </mask>
            <use id="Mask" stroke="#DFDFDF" fill="#FFFFFF" xlink:href="#path-1"></use>
            <g id="phone-call" transform="translate(8.000000, 8.000000)">
                <mask id="mask-4" fill="white">
                    <use xlink:href="#path-3"></use>
                </mask>
                <g id="Clip-2"></g>
                <path d="M19.3618183,15.7104002 C18.8596745,15.1901394 18.2542166,14.9119112 17.6125955,14.9119112 C16.9760204,14.9119112 16.3652577,15.1848582 15.842671,15.7053767 L14.2071131,17.3283098 C14.0724231,17.2561121 13.9379919,17.1891957 13.8086067,17.1222793 C13.6223568,17.0294721 13.4462635,16.9418818 13.2961121,16.8490747 C11.7642563,15.8804929 10.3720718,14.6180327 9.03681686,12.9847949 C8.389891,12.1706556 7.95522151,11.4853255 7.63958638,10.7900128 C8.06384036,10.4035848 8.45730067,10.0015065 8.8401514,9.61507853 C8.98525687,9.4709409 9.13003888,9.32152208 9.27507965,9.17712682 C10.361721,8.0953217 10.361721,6.69374743 9.27507965,5.61168469 L7.8619348,4.20508685 C7.70175596,4.04536328 7.53594886,3.88055175 7.38081603,3.71580462 C7.07022693,3.39629309 6.74424098,3.06647681 6.40790423,2.75727003 C5.90576037,2.26264222 5.30534848,2 4.67407822,2 C4.04254919,2 3.43204526,2.26264222 2.91450457,2.75727003 L2.90415375,2.76757477 L1.14432133,4.53496753 C0.481933936,5.19434247 0.104129231,5.99811266 0.0212580284,6.93075659 C-0.102822352,8.43518511 0.342197949,9.83675938 0.683839498,10.753753 C1.52206134,13.0054044 2.77476858,15.0919867 4.64302578,17.3283098 C6.90978931,20.0230009 9.63722875,22.1508665 12.7528237,23.6502715 C13.9430379,24.2118157 15.5320819,24.8764719 17.3070524,24.9896953 C17.4159947,24.9949764 17.5297243,25 17.6332971,25 C18.8288808,25 19.8328451,24.5726107 20.6195069,23.7222115 C20.6246176,23.7119067 20.6349684,23.7068832 20.6402732,23.6965784 C20.9093944,23.3720433 21.2197247,23.0781649 21.5459694,22.7639989 C21.7683178,22.5526228 21.9960358,22.331264 22.2186429,22.0992784 C22.7311376,21.5687128 23,20.9502992 23,20.3166217 C23,19.6778563 22.7258328,19.0644663 22.2032461,18.549229 L19.3618183,15.7104002 Z M21.2146787,21.1357202 C21.2093739,21.1357202 21.2093739,21.1410014 21.2146787,21.1357202 C21.0127731,21.3523775 20.8057569,21.5481033 20.5831497,21.7644385 C20.2468129,22.0839501 19.9051714,22.4187899 19.5844255,22.7949132 C19.06158,23.3514338 18.4457713,23.6140761 17.6383431,23.6140761 C17.5607767,23.6140761 17.4779055,23.6140761 17.4003391,23.6090525 C15.8633726,23.5111574 14.434831,22.9134177 13.3635864,22.4034616 C10.4342414,20.9915826 7.8619348,18.9872451 5.72455644,16.447254 C3.95993676,14.3294999 2.7798146,12.3716625 1.99845754,10.2694943 C1.51701532,8.98668224 1.34111617,7.98686425 1.41874728,7.0441732 C1.47050135,6.44115234 1.70326527,5.94150096 2.13288874,5.513854 L3.89776719,3.75676599 C4.15123274,3.51982124 4.4203539,3.39101191 4.68442904,3.39101191 C5.01041498,3.39101191 5.27423135,3.5869953 5.44003844,3.75174243 L5.45543528,3.76713514 C5.77132918,4.06094921 6.0713087,4.36487482 6.38713791,4.68940991 C6.54764022,4.85441466 6.71318854,5.01922619 6.87867218,5.18931891 L8.29155826,6.59591674 C8.8401514,7.14206829 8.8401514,7.64700084 8.29155826,8.19315238 C8.14147146,8.34263561 7.99662476,8.49205442 7.84653796,8.63619206 C7.41186848,9.07923174 6.99770654,9.49155039 6.54764022,9.89337108 C6.5372894,9.90367583 6.52693859,9.90895701 6.5216338,9.91900414 C6.07661349,10.3623014 6.1594847,10.7950364 6.25244794,11.0885928 L6.26816824,11.1351574 C6.63555744,12.0212367 7.15309813,12.8559856 7.93975998,13.850458 L7.94487069,13.8554815 C9.37341239,15.607224 10.8792617,16.9728604 12.5405673,18.0186634 C12.7528237,18.1527539 12.9701261,18.2609537 13.1771424,18.3638079 C13.3635864,18.4566795 13.5394856,18.5442054 13.6895724,18.6370125 C13.7103387,18.6473817 13.7310403,18.66271 13.7517419,18.6730147 C13.9276411,18.7605407 14.0931894,18.8018241 14.2639778,18.8018241 C14.6936013,18.8018241 14.9627225,18.5339007 15.0506397,18.4463747 L16.8206288,16.6842631 C16.9967221,16.5088892 17.2762587,16.2978352 17.6022447,16.2978352 C17.9231846,16.2978352 18.187001,16.4985845 18.3474386,16.6739584 L21.2093739,19.5230919 C21.7425702,20.0486339 21.7425702,20.5898263 21.2146787,21.1357202 Z" id="Fill-1" fill="#3B60B8" mask="url(#mask-4)"></path>
                <path d="M13.6226772,6.50052406 C15.0903056,6.74705325 16.4238957,7.4419574 17.4883588,8.50644523 C18.5527518,9.57093306 19.2418516,10.9043618 19.4940313,12.3724011 C19.5555881,12.742335 19.8748569,13 20.2392254,13 C20.2838349,13 20.323192,12.994257 20.3680815,12.9887941 C20.7825218,12.9214889 21.0571112,12.5294234 20.989882,12.1147361 C20.6872804,10.3386053 19.8469148,8.71928676 18.5639567,7.43621439 C17.2809986,6.15307198 15.6618242,5.31263156 13.8858517,5.01007301 C13.4714114,4.94304789 13.0849133,5.21745169 13.0118715,5.62646602 C12.9391098,6.03548036 13.2079568,6.43321879 13.6226772,6.50052406 Z" id="Fill-3" fill="#3B60B8" mask="url(#mask-4)"></path>
                <path d="M24.9889505,11.1664717 C24.5138169,8.37778166 23.1997057,5.83999825 21.1810055,3.82025657 C19.1623054,1.80084881 16.6254112,0.486610924 13.8373645,0.0109768857 C13.4474839,-0.0584114555 13.0790334,0.208723641 13.0096694,0.598740881 C12.9455126,0.993967256 13.2070798,1.36288082 13.6024347,1.43226916 C16.0913282,1.85434262 18.3611809,3.03507974 20.1663146,4.83563707 C21.9714484,6.64140354 23.1464977,8.91205186 23.56849,11.4018177 C23.6271724,11.7542357 23.9314662,12 24.2786201,12 C24.3213468,12 24.3589328,11.9947909 24.4013924,11.9893146 C24.7915401,11.9306117 25.0585816,11.556489 24.9889505,11.1664717 Z" id="Fill-4" fill="#3B60B8" mask="url(#mask-4)"></path>
            </g>
        </g>
    </g>
</svg>