<svg xmlns="http://www.w3.org/2000/svg" width="45" height="45" viewBox="-477 478 45 45"><style>.st0{fill:#55acee}.st1{fill:#fff}</style><circle class="st0" cx="-454.5" cy="500.5" r="22.5"/><path class="st1" d="M-445.6 495.8c0 .2 0 .4 0 .6 0 6.1-4.7 13.2-13.2 13.2-2.6 0-5-.7-7-2 .3 0 .7.1 1.1.1 2.1 0 4.2-.7 5.7-2-2 0-3.8-1.4-4.3-3.2.3.1.6.1.9.1.4 0 .8-.1 1.2-.2-2.1-.4-3.7-2.3-3.7-4.5v-.1c.7.3 1.3.6 2.1.6-1.2-.8-2-2.2-2-3.8 0-.8.2-1.6.7-2.3 2.3 2.8 5.6 4.7 9.5 4.8-.1-.3-.1-.7-.1-1.1 0-2.5 2-4.6 4.6-4.6 1.3 0 2.5.6 3.4 1.5 1.1-.2 2-.6 2.9-1.1-.3 1.1-1.1 2-2 2.5.9-.1 1.8-.3 2.6-.7-.7.7-1.5 1.6-2.4 2.2z"/></svg>