<svg xmlns="http://www.w3.org/2000/svg" width="45" height="45" viewBox="-477 478 45 45"><style>.st0{fill:#dd4b39}.st1{fill:#fff}</style><circle class="st0" cx="-454.5" cy="500.5" r="22.5"/><path class="st1" d="M-458.2 503.4c-2.6 0-4.9 1.7-4.9 3.7s2 3.7 4.6 3.7c3.8 0 5.1-1.6 5.1-3.6 0-.2 0-.5-.1-.7-.3-1.1-1.5-1.8-2.9-2.8-.6-.2-1.2-.3-1.8-.3zm15-9.2h-3v3h-1.6v-3h-3v-1.6h3v-3h1.6v3h3v1.6zm-9.6.4c0 1.5-.8 2.6-2 3.5-1.1.9-1.3 1.2-1.3 2 0 .7 1.3 1.6 2 2 2.1 1.6 2.5 2.6 2.5 4.6 0 2.5-2.7 5-7.1 5-3.8 0-7.1-1.6-7.1-4.1s2.7-5.2 6.5-5.2h1.2c-.5-.5-1-1-1-1.7 0-.5.2-.9.3-1.3-.2 0-.4 0-.7 0-3.2 0-5-2.2-5-5 0-2.7 2.8-5.2 6.1-5.2h6.6l-1.5 1.6h-1.7c1.6.8 2.2 2.3 2.2 3.8zm-6.2-4.1c-1.8-.1-3 1.7-2.7 4.1s2 4 3.8 4c1.8.1 2.8-1.5 2.5-3.8-.2-2.4-1.8-4.3-3.6-4.3z"/></svg>