<?xml version="1.0" encoding="UTF-8"?>
<svg width="60px" height="60px" viewBox="0 0 60 60" version="1.1" xmlns="http://www.w3.org/2000/svg" xmlns:xlink="http://www.w3.org/1999/xlink">
    <!-- Generator: Sketch 48.2 (47327) - http://www.bohemiancoding.com/sketch -->
    <title>Twitter</title>
    <desc>Created with Sketch.</desc>
    <defs></defs>
    <g id="Footer-Designed" stroke="none" stroke-width="1" fill="none" fill-rule="evenodd" transform="translate(-1170.000000, -46.000000)">
        <g id="Footer" transform="translate(0.000000, 1.000000)">
            <g id="Social/twitter" transform="translate(1170.000000, 45.000000)">
                <circle id="Oval-27" fill="#FFFFFF" cx="30" cy="30" r="30"></circle>
                <path d="M39.5312733,24.1458359 C39.5312733,23.9687523 39.3854398,23.8125022 39.1979396,23.8125022 C39.0937728,23.8125022 38.3750219,24.1145859 38.1875217,24.1666692 C38.437522,23.8750022 39.0104393,22.9895845 39.0104393,22.6145841 C39.0104393,22.4375005 38.8646058,22.2812503 38.6771056,22.2812503 C38.6250222,22.2812503 38.5625221,22.3020837 38.5104387,22.3333337 C37.8021046,22.7187509 37.1250204,23.0208346 36.3333528,23.1875014 C35.5521019,22.4375005 34.4896006,22 33.3958493,22 C31.0833465,22 29.187511,23.8854189 29.187511,26.2083384 C29.187511,26.3750052 29.1979276,26.5520888 29.2291777,26.7187556 C26.9375083,26.5208387 24.7604223,25.5625042 23.052087,24.0312524 C22.6354198,23.656252 22.2812527,23.2500015 21.9062523,22.8333343 C21.8229188,22.7395842 21.7500021,22.7083342 21.6250019,22.7083342 C21.5104185,22.7083342 21.4166684,22.7916676 21.364585,22.875001 C20.9895845,23.427085 20.7916676,24.3229194 20.7916676,24.9895869 C20.7916676,25.9583381 21.1250013,26.9062558 21.7500021,27.6562567 C21.5520852,27.5937567 21.2500015,27.3958398 21.0729179,27.3958398 C20.8541677,27.3958398 20.6666675,27.55209 20.6666675,27.7708402 C20.6666675,29.2291753 21.4687518,30.5833436 22.6979199,31.3437611 C22.6041698,31.3333445 22.5208363,31.3020944 22.4270862,31.3020944 C22.2500027,31.3020944 22.1041692,31.4583446 22.1041692,31.6250115 C22.1041692,31.6666782 22.1145859,31.6979282 22.1250025,31.7395949 C22.5833364,33.1458466 23.7291711,34.2083479 25.1666728,34.5416816 C23.9895881,35.2708492 22.6354198,35.6458496 21.2604182,35.6458496 C20.9479178,35.6458496 20.6354174,35.5937662 20.3333337,35.5937662 C20.1458335,35.5937662 20,35.7500164 20,35.9270999 C20,36.0416834 20.0625001,36.1354335 20.1562502,36.2083503 C20.4270838,36.4062672 20.7604176,36.572934 21.0625013,36.7291842 C22.6666698,37.5625186 24.4583386,38.0000191 26.2708408,38.0000191 C30.8125129,38.0000191 34.6979342,35.5625162 36.5729364,31.4166779 C37.2500206,29.9270928 37.6458544,28.2916742 37.6146043,26.6562556 L37.6146043,26.3125051 C38.3229385,25.7812545 39.0104393,25.0937537 39.4791899,24.3333361 C39.5104399,24.2812527 39.5312733,24.2187526 39.5312733,24.1458359 L39.5312733,24.1458359 Z" id="twiiter-ico" fill="#AB733D"></path>
            </g>
        </g>
    </g>
</svg>