<?xml version="1.0" encoding="UTF-8"?>
<svg width="600px" height="400px" viewBox="0 0 600 400" version="1.1" xmlns="http://www.w3.org/2000/svg" xmlns:xlink="http://www.w3.org/1999/xlink">
    <!-- Generator: Sketch 48.2 (47327) - http://www.bohemiancoding.com/sketch -->
    <title>Artboard</title>
    <desc>Created with Sketch.</desc>
    <defs></defs>
    <g id="Page-1" stroke="none" stroke-width="1" fill="none" fill-rule="evenodd">
        <g id="Artboard">
            <rect id="Rectangle-16" fill="#F5F5F5" x="0" y="0" width="600" height="400"></rect>
            <g id="Group-Copy-7" transform="translate(47.000000, 106.000000)" fill="#D6D6D6">
                <path d="M82.4042466,96.6699361 C81.4522207,100.115457 80.4617392,102.759556 79.4328021,104.602234 C77.0501359,108.869246 74.0260281,112.526631 70.3603878,115.574497 C66.6947476,118.622362 62.5098711,120.999662 57.8056328,122.706467 C53.1013944,124.413272 48.0001216,125.266662 42.5016613,125.266662 C36.3922608,125.266662 30.8022433,124.260881 25.731441,122.249289 C20.6606386,120.237698 16.2924829,117.189878 12.6268426,113.105738 C8.96120236,109.021597 6.12037378,103.962216 4.10427164,97.9274413 C2.0881695,91.8926668 1.08013356,84.8522023 1.08013356,76.8058363 C1.08013356,68.7594704 2.0881695,61.8104404 4.10427164,55.9585379 C6.12037378,50.1066354 8.96120236,45.3215577 12.6268426,41.6031613 C16.2924829,37.884765 20.7217317,35.1112486 25.9147221,33.2825291 C31.1077124,31.4538095 36.8810092,30.5394635 43.2347856,30.5394635 C49.09981,30.5394635 54.4454552,31.3318967 59.2718815,32.916787 C64.0983079,34.5016773 68.3137309,36.8180206 71.9182772,39.8658865 C75.5228234,42.9137524 78.363652,46.5711366 80.4408481,50.8381488 C81.3612762,52.7289081 82.2097278,55.4634572 82.9862028,59.0417962 L82.986206,59.0417955 C83.5717886,61.7404181 81.8588313,64.4027924 79.1602087,64.9883751 C78.8118424,65.0639682 78.456391,65.1020898 78.0999175,65.1020898 L63.7020096,65.1020879 C61.6096764,65.1020879 59.7386084,63.7992901 59.0126308,61.8369408 C57.6430005,58.1347696 56.1409812,55.5962103 54.506573,54.221263 C51.3907788,51.6000984 47.5724608,50.2895357 43.0515045,50.2895357 C40.4855564,50.2895357 38.1029259,50.7162305 35.9035418,51.569633 C33.7041576,52.4230354 31.7797254,53.8555109 30.1301873,55.8671024 C28.4806492,57.8786938 27.1671478,60.5607756 26.1896437,63.9134281 C25.2121396,67.2660805 24.7233949,71.3806378 24.7233949,76.2572232 C24.7233949,86.1323087 26.4950945,93.4470771 30.0385467,98.2017479 C33.581999,102.956419 37.6752358,105.333718 42.3183802,105.333718 C46.9615245,105.333718 50.9325752,104.053634 54.2316514,101.493427 C55.9693613,100.144898 57.5163784,97.5406633 58.8727026,93.6807219 L58.872704,93.6807224 C59.5763274,91.6782917 61.4674994,90.3382932 63.5899542,90.3382932 L77.5848372,90.3382951 C80.3462598,90.3382951 82.5848352,92.5768705 82.5848352,95.3382932 C82.5848352,95.7882781 82.5240905,96.2362036 82.4042466,96.6699361 Z M147.70501,117.889338 L147.70501,67.1136713 C147.70501,60.2864517 146.513695,55.6232868 144.131029,53.1240368 C141.748363,50.6247868 137.807859,49.3751805 132.309398,49.3751805 C129.376886,49.3751805 126.749883,49.9542663 124.428311,51.1124554 C122.106739,52.2706444 120.15176,53.8555109 118.563316,55.8671024 C116.974872,57.8786938 115.783557,60.1950372 114.989335,62.8162018 C114.195113,65.4373665 113.798008,68.2718393 113.798008,71.3197051 L113.798008,117.889338 C113.798008,120.650762 111.559431,122.889338 108.798008,122.889338 L94.9714651,122.889338 C92.2100414,122.889338 89.9714651,120.650762 89.9714651,117.889338 L89.9714128,4.99975051 C89.9714128,2.23832676 92.209989,-0.000249487018 94.9714128,-0.000249487018 C94.9714302,-0.000249487018 94.9714477,-0.000249486927 94.9714651,-0.000249486744 L108.798008,2.73984391e-10 C111.559411,2.89148459e-05 113.797955,2.2385967 113.797955,5 L113.798043,37.4081691 C113.798043,38.683598 114.831982,39.7175373 116.107411,39.7175373 C116.718997,39.7175373 117.30561,39.4749391 117.738551,39.0429668 C117.738551,39.0429668 117.738551,39.0429668 117.738551,39.0429668 C119.510277,37.2752046 121.556896,35.7817727 123.878468,34.5626263 C126.20004,33.34348 128.76595,32.3681775 131.576274,31.6366897 C134.386598,30.9052019 137.319066,30.5394635 140.373767,30.5394635 C149.660055,30.5394635 157.205051,33.0691542 163.008982,38.1286116 C168.812912,43.188069 171.714834,50.2285336 171.714834,59.2502166 L171.714834,117.889338 C171.714834,120.650762 169.476258,122.889338 166.714834,122.889338 L152.70501,122.889338 C149.943587,122.889338 147.70501,120.650762 147.70501,117.889338 Z M225.599476,105.333718 C240.139849,105.333718 247.409927,96.1902579 247.409927,77.9030625 C247.409927,59.7377819 240.139849,50.6552778 225.599476,50.6552778 C211.059103,50.6552778 203.789026,59.7377819 203.789026,77.9030625 C203.789026,96.1902579 211.059103,105.333718 225.599476,105.333718 Z M225.599476,125.266662 C218.268196,125.266662 211.731235,124.10849 205.988399,121.792112 C200.245562,119.475734 195.388662,116.245044 191.417552,112.099947 C187.446441,107.954849 184.422334,102.956424 182.345137,97.1045216 C180.267941,91.2526191 179.229359,84.8521968 179.229359,77.9030625 C179.229359,70.8320137 180.298488,64.3706349 182.436778,58.5187324 C184.575068,52.6668299 187.660269,47.6684048 191.692473,43.5233072 C195.724678,39.3782096 200.581578,36.1779985 206.263321,33.9225777 C211.945063,31.6671569 218.390384,30.5394635 225.599476,30.5394635 C232.686381,30.5394635 239.040062,31.6671569 244.66071,33.9225777 C250.281359,36.1779985 255.077166,39.3477314 259.048276,43.4318717 C263.019386,47.516012 266.074041,52.4839589 268.212331,58.3358614 C270.350621,64.1877639 271.41975,70.7100991 271.41975,77.9030625 C271.41975,85.096026 270.350621,91.587883 268.212331,97.3788282 C266.074041,103.169773 263.019386,108.13772 259.048276,112.282818 C255.077166,116.427915 250.250812,119.628127 244.56907,121.883547 C238.887327,124.138968 232.564193,125.266662 225.599476,125.266662 Z M384.870749,117.889338 L384.870749,68.3937685 C384.870749,62.9076099 383.587794,58.4577925 381.021846,55.0441827 C378.455897,51.6305729 375.034684,49.9237936 370.758104,49.9237936 C366.359336,49.9237936 362.724297,51.7524857 359.852879,55.4099248 C356.981461,59.0673638 355.545773,63.6390941 355.545773,69.1252527 L355.545773,117.889338 C355.545773,120.650762 353.307197,122.889338 350.545773,122.889338 L336.719231,122.889338 C333.957807,122.889338 331.719231,120.650762 331.719231,117.889338 L331.719231,68.7595106 C331.719231,65.1020715 331.474858,62.1152078 330.986106,59.7988297 C330.497354,57.4824516 329.672598,55.6537595 328.511812,54.3126985 C327.351025,52.9716375 325.854245,52.0268133 324.021425,51.4781974 C322.188605,50.9295816 319.989253,50.6552778 317.423305,50.6552778 C307.770453,50.6552778 302.944099,56.5070925 302.944099,68.2108975 L302.944015,117.889338 C302.944015,120.650729 300.70549,122.889292 297.944099,122.889338 L284.117556,122.889736 C281.356132,122.889782 279.117519,120.651243 279.117473,117.889819 C279.117473,117.889791 279.117473,117.889763 279.117473,117.889736 L279.117556,37.916787 C279.117556,35.1553632 281.356132,32.916787 284.117556,32.916787 L296.47785,32.916787 C299.239274,32.916787 301.47785,35.1553632 301.47785,37.916787 L301.477802,42.8682575 C301.477802,43.4205688 301.925539,43.8683056 302.47785,43.8683056 C302.801454,43.8683056 303.105055,43.7117201 303.29267,43.4480538 C306.957891,38.2971126 310.018573,35.0914754 312.474716,33.8311422 C316.751296,31.6366787 321.883115,30.5394635 327.870328,30.5394635 C330.925028,30.5394635 333.64367,30.7832891 336.026336,31.2709476 C338.409003,31.7586062 340.547261,32.5815176 342.441175,33.7397067 C344.335089,34.8978957 346.137335,36.3913276 347.847967,38.2200471 C348.8438,39.2846241 350.274415,41.0928763 352.139812,43.6448039 L352.139814,43.6448026 C352.46573,44.0906676 353.091382,44.1879051 353.537247,43.8619887 C353.629485,43.7945651 353.709487,43.7118332 353.773778,43.6173851 C357.22204,38.5516515 360.19536,35.3200491 362.693736,33.9225777 C366.72594,31.6671569 371.613387,30.5394635 377.356224,30.5394635 C381.87718,30.5394635 386.03151,31.3014185 389.819338,32.8253515 C393.607166,34.3492844 396.8451,36.4827585 399.533236,39.2258378 C402.221372,41.9689171 404.329084,45.1691283 405.856434,48.8265674 C407.383784,52.4840064 408.147448,56.3852162 408.147448,60.5303139 L408.147561,117.889736 C408.147562,120.651159 405.908987,122.889737 403.147563,122.889738 C403.147534,122.889738 403.147505,122.889738 403.147475,122.889738 L389.870749,122.889338 C387.109358,122.889291 384.870834,120.650728 384.870834,117.889338 Z M460.199279,104.967976 C473.884336,104.967976 480.726762,95.702603 480.726762,77.1715784 C480.726762,69.1252124 478.832876,62.5723991 475.045048,57.5129417 C471.25722,52.4534843 466.369773,49.9237936 460.38256,49.9237936 C454.639724,49.9237936 449.843916,52.3010933 445.994994,57.0557641 C442.146072,61.8104349 440.22164,68.027988 440.22164,75.7086101 C440.22164,95.2149518 446.880786,104.967976 460.199279,104.967976 Z M417.678065,183 L417.678065,37.916787 C417.678065,35.1553632 419.916641,32.916787 422.678065,32.916787 L435.671024,32.916787 C438.399891,32.916787 440.62475,35.1047928 440.670327,37.8332784 L440.697292,39.4472683 C440.71574,40.5516812 441.625999,41.4320296 442.730412,41.4135815 C443.200723,41.4057254 443.653217,41.2323538 444.008369,40.9239363 C451.980392,34.0009544 459.271267,30.5394635 465.880993,30.5394635 C471.501641,30.5394635 476.7251,31.6366787 481.551527,33.8311422 C486.377953,36.0256056 490.501736,39.1953386 493.923001,43.3404362 C497.344265,47.4855338 500.032361,52.5449153 501.987369,58.5187324 C503.942377,64.4925496 504.919866,71.2587103 504.919866,78.8174177 C504.919866,85.6446373 504.09511,91.8926687 502.445572,97.5616992 C500.796034,103.23073 498.382857,108.13772 495.205968,112.282818 C492.02908,116.427915 488.149669,119.628127 483.567619,121.883547 C478.985568,124.138968 473.762109,125.266662 467.897085,125.266662 C461.273157,125.266662 453.44594,121.51876 444.415435,114.022958 L444.415436,114.022956 C443.565512,113.317474 442.304606,113.434567 441.599123,114.284491 C441.301146,114.643476 441.138045,115.095338 441.138045,115.56188 L441.138045,183 C441.138045,185.761424 438.899469,188 436.138045,188 L422.678065,188 C419.916641,188 417.678065,185.761424 417.678065,183 Z" id="chomp"></path>
                <path d="M226.429389,-26.3497877 C226.541333,-28.3720292 226.302053,-33.2800494 225.6122,-35.18226 C224.021665,-39.5669628 220.647026,-38.1748129 218.072785,-35.4641826 C195.728337,-11.9214446 182.386502,28.8564503 182.382305,73.6200051 C182.379737,100.999145 189.387979,140.504101 203.407031,192.134873 L203.407031,192.134873 C206.021673,201.76434 207.180376,211.730908 206.844635,221.703384 L202.792222,342.071764 C202.173884,370 203.752826,370 214.933311,370 C226.113796,370 226.430322,370 226.430322,342.071764 L226.430322,206.364577 C226.430322,206.353978 226.430011,128.782523 226.429389,-26.3497877 Z" id="Fill-3" transform="translate(204.419032, 166.000000) scale(1, -1) rotate(90.000000) translate(-204.419032, -166.000000) "></path>
            </g>
        </g>
    </g>
</svg>